<svg xmlns="http://www.w3.org/2000/svg" viewBox="0 0 24 24" fill="currentColor">
  <path d="M12 23c-4.486 0-7-2.927-7-6.246 0-2.576 1.136-4.391 2.303-6.142l.216-.33c.122-.185.246-.384.373-.58.881-1.355 1.778-2.619 3.306-3.592l.537-.359.523.372c.654.464 1.069 1.015 1.375 1.596-.083-.646-.189-1.371-.173-2.074l.012-.534.413.349c.849.716 1.839 1.902 2.523 3.312.673 1.386.973 2.963.973 4.734 0 1.38-.234 2.881-.713 4.115-.498 1.274-1.204 2.272-2.092 2.97-.109.086-.218.163-.328.241l-.228.162-.25.161c-.42.268-.891.506-1.379.674-.599.206-1.224.32-1.881.32zm1.229-6.851c-.814 0-1.611.206-2.316.584-.687.367-1.221.932-1.523 1.635-.279.652-.31 1.359-.092 2.048.221.689.694 1.292 1.316 1.681.625.391 1.362.553 2.075.462s1.413-.425 1.918-.946c.14-.146.32-.4.45-.652.129-.264.224-.558.28-.888.056-.314.048-.654-.05-.933-.096-.276-.273-.525-.465-.672-.292-.224-.601-.33-.952-.33z"/>
</svg>
